<svg width="32" height="32" viewBox="0 0 32 32" fill="none" xmlns="http://www.w3.org/2000/svg">
<path d="M26.6666 13.3333C26.6666 21.3333 15.9999 29.3333 15.9999 29.3333C15.9999 29.3333 5.33325 21.3333 5.33325 13.3333C5.33325 10.5043 6.45706 7.79121 8.45745 5.79082C10.4578 3.79043 13.1709 2.66663 15.9999 2.66663C18.8289 2.66663 21.542 3.79043 23.5424 5.79082C25.5428 7.79121 26.6666 10.5043 26.6666 13.3333Z" stroke="#4B5563" stroke-width="2" stroke-linecap="round" stroke-linejoin="round"/>
<path d="M16 17.3334C18.2091 17.3334 20 15.5425 20 13.3334C20 11.1242 18.2091 9.33337 16 9.33337C13.7909 9.33337 12 11.1242 12 13.3334C12 15.5425 13.7909 17.3334 16 17.3334Z" stroke="#4B5563" stroke-width="2" stroke-linecap="round" stroke-linejoin="round"/>
</svg>
