<svg width="32" height="32" viewBox="0 0 32 32" fill="none" xmlns="http://www.w3.org/2000/svg">
<path d="M19.9999 29.3333V24C20.1854 22.3297 19.7065 20.6535 18.6666 19.3333C22.6666 19.3333 26.6666 16.6666 26.6666 12C26.7732 10.3333 26.3066 8.69329 25.3332 7.33329C25.7066 5.79996 25.7066 4.19996 25.3332 2.66663C25.3332 2.66663 23.9999 2.66663 21.3332 4.66663C17.8132 3.99996 14.1866 3.99996 10.6666 4.66663C7.99989 2.66663 6.66655 2.66663 6.66655 2.66663C6.26655 4.19996 6.26655 5.79996 6.66655 7.33329C5.69572 8.6878 5.22452 10.337 5.33322 12C5.33322 16.6666 9.33322 19.3333 13.3332 19.3333C12.8132 19.9866 12.4266 20.7333 12.1999 21.5333C11.9732 22.3333 11.9066 23.1733 11.9999 24V29.3333" stroke="#D1D5DB" stroke-width="2" stroke-linecap="round" stroke-linejoin="round"/>
<path d="M12.0001 24C5.98675 26.6667 5.33341 21.3334 2.66675 21.3334" stroke="#D1D5DB" stroke-width="2" stroke-linecap="round" stroke-linejoin="round"/>
</svg>
