<svg width="32" height="32" viewBox="0 0 32 32" fill="none" xmlns="http://www.w3.org/2000/svg">
<path d="M16.0001 29.3333C23.3639 29.3333 29.3334 23.3638 29.3334 16C29.3334 8.63616 23.3639 2.66663 16.0001 2.66663C8.63628 2.66663 2.66675 8.63616 2.66675 16C2.66675 23.3638 8.63628 29.3333 16.0001 29.3333Z" stroke="#D1D5DB" stroke-width="2" stroke-linecap="round" stroke-linejoin="round"/>
<path d="M20 12.472C19.2834 11.6596 18.3365 11.0846 17.2851 10.8237C16.2337 10.5627 15.1278 10.6281 14.1145 11.0112C13.1012 11.3942 12.2286 12.0767 11.6127 12.9679C10.9969 13.8591 10.667 14.9167 10.667 16C10.667 17.0832 10.9969 18.1408 11.6127 19.032C12.2286 19.9232 13.1012 20.6057 14.1145 20.9888C15.1278 21.3718 16.2337 21.4372 17.2851 21.1762C18.3365 20.9153 19.2834 20.3404 20 19.528" stroke="#D1D5DB" stroke-width="2" stroke-linecap="round" stroke-linejoin="round"/>
</svg>
